<?xml version="1.0" encoding="utf-8"?>
<svg xmlns="http://www.w3.org/2000/svg" height="256" width="256" viewBox="0 0 256 256">
  <g>
    <path id="path1" transform="rotate(0,128,128) translate(61.164943774952,59) scale(4.31249897182012,4.31249897182012)  " fill="#000000" d="M10.548072,7.3330383L12.356084,11.653061 16.374112,11.653061 13.461092,14.466076 14.164097,18.484097 10.548072,16.575087 6.9320472,18.484097 7.6350522,14.466076 4.7220325,11.653061 8.7400597,11.653061z M22.402153,4.0180206L28.228193,5.5250292C30.237206,6.0270314,31.443214,8.1370425,30.84021,10.046053L25.717176,29.232153C25.214172,31.242165,23.105158,32.44717,21.196145,31.844168L9.1420627,28.63015C8.9410611,28.52915,8.7400597,28.52915,8.5390585,28.429149L17.379119,28.429149 17.881122,28.429149 21.89915,29.534155C22.603154,29.735155,23.205158,29.333155,23.406159,28.63015L28.529194,9.4430494C28.730196,8.740046,28.329193,8.1370425,27.625189,7.9360418L22.402153,6.5300341z M3.7170253,2.511013C3.0140204,2.511013,2.5110173,3.0140162,2.5110173,3.7170191L2.5110173,23.607123C2.5110173,24.310127,3.1140213,24.81213,3.7170253,24.81213L17.379119,24.81213C18.082124,24.81213,18.584126,24.210127,18.584126,23.607123L18.584126,3.7170191C18.584126,3.0140162,17.982122,2.511013,17.379119,2.511013z M3.7170253,0L17.379119,0C19.388132,0,21.096144,1.7080088,21.096144,3.7170191L21.096144,23.607123C21.096144,25.616135,19.388132,27.324143,17.379119,27.324143L3.7170253,27.324143C1.7080116,27.324143,0,25.616135,0,23.607123L0,3.7170191C0,1.7080088,1.7080116,0,3.7170253,0z" />
  </g>
</svg>

